<?xml version="1.0" encoding="utf-8"?>
<!-- Generator: Adobe Illustrator 21.1.0, SVG Export Plug-In . SVG Version: 6.00 Build 0)  -->
<svg version="1.1" id="Primary_Logo" xmlns="http://www.w3.org/2000/svg" xmlns:xlink="http://www.w3.org/1999/xlink" x="0px"
	 y="0px" viewBox="0 0 1009.365 123.984" style="enable-background:new 0 0 1009.365 123.984;" xml:space="preserve">
<style type="text/css">
	.st0{fill:#FFFFFF;}
	.st1{fill:#002F6D;}
	.st2{fill:#FFB600;}
</style>
<g>
	<g>
		<circle class="st0" cx="61.995" cy="61.992" r="60.98"/>
		<path class="st1" d="M61.99,123.984C27.809,123.984,0,96.177,0,61.996C0,27.812,27.809,0,61.99,0c34.187,0,62,27.812,62,61.996
			C123.99,96.177,96.177,123.984,61.99,123.984z M61.99,2.175c-32.982,0-59.815,26.836-59.815,59.821
			c0,32.981,26.833,59.812,59.815,59.812c32.987,0,59.825-26.832,59.825-59.812C121.815,29.011,94.978,2.175,61.99,2.175z"/>
		<path class="st1" d="M78.675,76.427c-1.126-6.995-3.34-13.815-6.361-20.215c-2.925-6.192-6.627-12.036-11.099-17.233
			c0.343,0.889,0.677,1.779,1.001,2.673c2.301,6.357,4.104,12.916,5.119,19.606c0.967,6.405,1.228,12.96,0.324,19.389
			c-0.479,3.389-1.276,6.748-2.485,9.958c5.254-0.077,10.05-1.223,14.27-3.05C79.569,83.828,79.264,80.082,78.675,76.427z
			 M58.662,101.52c-0.996,1.097-2.083,2.117-3.258,3.031c-5.158,4.007-11.732,5.699-18.166,4.5c4.123,2.17,8.537,3.804,13.09,4.819
			c0.773,0.131,1.61,0.237,2.407,0.324c5.941,0.633,12.177-0.251,17.044-3.935c4.123-3.128,6.705-7.797,8.131-12.708
			c-4.95,2.446-10.77,4.012-17.407,4.012C59.885,101.564,59.271,101.549,58.662,101.52z M65.923,68.273
			c-0.517-8.3-2.485-16.464-5.201-24.3c-0.372-1.073-0.759-2.137-1.16-3.195c0.503,9.455,0.126,19.128-2.286,28.327
			c-1.644,6.274-4.317,12.588-8.633,17.508c4.264,2.286,9.078,3.688,14.192,3.949c0.184-0.45,0.358-0.899,0.522-1.353
			C65.758,82.538,66.363,75.311,65.923,68.273z M36.044,94.506c-6.647,1.615-13.801-0.135-19.152-4.351
			c2.224,3.543,4.863,6.825,7.85,9.755c1.489,1.465,3.036,2.751,4.834,3.824c1.663,0.996,3.437,1.818,5.288,2.402
			c3.495,1.112,7.246,1.363,10.838,0.58c3.408-0.744,6.569-2.398,9.213-4.665c0.29-0.247,0.575-0.503,0.851-0.773
			c-6.796-0.807-13.061-3.345-18.35-7.154C36.963,94.265,36.508,94.395,36.044,94.506z M90.194,66.431
			c-3.843-7.198-9.059-13.651-15.043-19.176c-3.577-3.297-7.449-6.274-11.563-8.87c3.872,4.607,7.169,9.692,9.866,15.063
			c2.809,5.602,4.984,11.548,6.4,17.653c1.17,5.047,1.827,10.243,1.755,15.425c5.37-2.751,9.663-6.627,12.578-10.717v-0.005
			C93.157,72.56,91.784,69.413,90.194,66.431z M83.438,110.35c2.102-1.163,4.06-2.586,5.731-4.311
			c2.59-2.674,4.582-5.884,5.733-9.478c0.967-3.021,1.344-6.212,1.266-9.373c-0.053-2.219-0.314-4.418-0.744-6.589
			c-2.746,5.317-7.783,11.321-14.903,15.536c-0.585,2.591-1.436,5.119-2.625,7.493c-2.296,4.578-5.893,8.387-10.543,10.591
			c-0.633,0.3-1.281,0.575-1.938,0.812c3.65-0.227,7.275-0.836,10.804-1.813c0.647-0.181,1.29-0.374,1.93-0.579
			C79.983,112.053,81.753,111.282,83.438,110.35L83.438,110.35z M113.005,46.786c-1.416-4.747-3.5-9.291-6.168-13.462
			c-2.649-4.138-5.873-7.908-9.547-11.171c-3.674-3.258-7.787-6.013-12.21-8.15c-4.505-2.18-9.32-3.712-14.26-4.544
			C65.71,8.603,60.47,8.496,55.332,9.144c-4.993,0.624-9.89,1.967-14.502,3.973c-4.529,1.972-8.774,4.578-12.588,7.715
			c-3.775,3.108-7.125,6.734-9.924,10.746c-2.823,4.051-5.08,8.493-6.68,13.163c-1.648,4.819-2.591,9.866-2.804,14.951
			c-0.276,6.622,0.677,13.279,2.833,19.548c0.138,0.407,0.276,0.817,0.423,1.223c0.292,0.809,0.928,2.048,1.395,2.77
			c0.784,1.211,1.69,2.347,2.706,3.379c1.837,1.876,4.022,3.413,6.415,4.496c3.949,1.789,8.445,2.306,12.66,1.349
			c-8.745-7.251-14.313-18.205-14.313-30.449c0-17.673,11.432-30.947,23.367-36.095v3.77c-5.955,4.404-13.554,13.762-13.554,27.089
			c0,5.511,1.315,10.712,3.654,15.309l8.667-6.308c0.87-0.73,1.233-1.131,1.233-2.847V36.243l20.273-14.879l31.701,8.914
			l-7.662,5.477c-2.132,1.576-4.409,0.986-6.086,0.522L59.59,29.722l-5.743,4.244v23.585c-0.005,1.745-0.058,4.099-2.146,5.723
			L36.069,74.958c2.702,4.235,6.323,7.826,10.581,10.494c1.697-1.847,3.142-3.92,4.36-6.105c1.658-2.978,2.9-6.173,3.843-9.445
			c1.223-4.254,1.943-8.638,2.34-13.042c0.512-5.733,0.483-11.514,0.121-17.257c-0.15-2.378-0.372-4.747-0.604-7.12
			c3.688,0.875,7.323,1.905,10.9,3.176c4.665,1.658,9.228,3.621,13.641,5.868c4.655,2.378,9.155,5.076,13.346,8.203
			c4.017,2.992,7.783,6.395,10.876,10.345c3.674,4.694,6.323,10.238,6.932,16.213c0.077,0.773,0.121,1.552,0.135,2.335
			c1.779-5.375,2.659-11.026,2.659-16.687C115.2,56.811,114.465,51.697,113.005,46.786z M108.906,70.748
			c-1.523-4.418-4.167-8.368-7.294-11.809C95.526,52.243,87.7,47.206,79.666,43.17c-4.341-2.18-8.827-4.08-13.414-5.675
			c4.67,3.099,9.025,6.68,12.974,10.659c3.799,3.833,7.232,8.044,10.146,12.583c2.726,4.239,5.013,8.778,6.622,13.559
			c1.499,4.452,2.412,9.131,2.393,13.84c-0.024,5.482-1.402,10.934-4.442,15.531c-0.367,0.561-0.759,1.102-1.175,1.634
			c5.429-3.862,10.117-8.74,13.757-14.313c0.219-0.335,0.435-0.673,0.646-1.013c1.787-2.875,2.918-6.128,3.09-9.509
			C110.43,77.187,109.987,73.893,108.906,70.748z"/>
		<path class="st2" d="M95.419,80.585l0.005,0.014c-2.746,5.317-7.783,11.321-14.903,15.536c-0.841,0.498-1.711,0.972-2.61,1.416
			c-4.95,2.446-10.77,4.012-17.407,4.012c-0.619,0-1.233-0.014-1.842-0.043c-0.976-0.044-1.943-0.126-2.896-0.242
			c-6.796-0.807-13.061-3.345-18.35-7.154c-0.735-0.527-1.455-1.083-2.151-1.668c-8.745-7.251-14.313-18.205-14.313-30.449
			c0-17.673,11.432-30.947,23.367-36.095v3.77c-5.955,4.404-13.554,13.762-13.554,27.089c0,5.511,1.315,10.712,3.654,15.309
			l8.667-6.308c0.87-0.73,1.233-1.131,1.233-2.847V36.243l20.273-14.879l31.701,8.914l-7.662,5.477
			c-2.132,1.576-4.409,0.986-6.086,0.522L59.59,29.722l-5.743,4.244v23.585c-0.005,1.745-0.058,4.099-2.146,5.723L36.069,74.958
			c2.702,4.235,6.323,7.826,10.581,10.494c0.648,0.411,1.31,0.798,1.992,1.16c4.264,2.286,9.078,3.688,14.192,3.949
			c0.585,0.034,1.175,0.048,1.769,0.048c0.193,0,0.382,0,0.57-0.005c5.254-0.077,10.05-1.223,14.27-3.05
			c0.74-0.324,1.465-0.662,2.166-1.03c5.37-2.751,9.663-6.627,12.578-10.717l0.015,0.043C94.694,77.409,95.105,78.989,95.419,80.585
			z"/>
	</g>
	<g>
		<g>
			<path class="st1" d="M178.546,38.444c4.616,0,9.651,0.35,14.827,1.468c0,0,1.608,9.651,1.608,10.351
				c0.07,0.419-0.839,0.908-1.539,0.908c-0.419,0-0.629-0.07-0.839-0.209c-0.419-2.168-2.028-10.211-13.707-10.211
				c-10.351,0-17.065,10.561-17.065,20.352c0,10.911,6.015,22.101,18.183,22.101c4.266,0,7.204-1.539,9.232-3.357
				c2.728-2.448,3.777-5.805,4.266-8.113c0.699-0.07,1.608,0.141,2.238,0.56c0,1.399-1.469,9.232-2.448,10.071
				c-3.847,2.168-8.602,3.147-15.037,3.147c-13.847,0-23.359-10.56-23.359-22.939C154.907,49.494,164.768,38.444,178.546,38.444z"/>
			<path class="st1" d="M203.413,72.013c3.917-1.399,10.211-3.497,12.239-4.406c0.7-0.28,0.839-0.489,0.839-1.748v-1.888
				c0-3.147-2.588-6.715-6.015-6.715c-2.448,0-3.357,1.609-3.846,4.337c-0.419,2.378-1.539,3.357-3.287,3.357
				c-1.469,0-2.378-1.539-2.378-2.938c0-0.28,0.21-1.329,0.49-1.679c2.168-2.028,7.623-5.735,12.729-5.735
				c3.986,0,7.623,4.197,7.623,9.582v14.407c0,1.889,0.559,3.288,2.168,3.288c1.259,0,2.098-0.77,2.308-0.91
				c0.21,0,0.28,0.35,0.28,0.56c0,0.419-0.14,0.978-0.35,1.329c-0.839,0.769-3.777,2.657-5.246,2.657
				c-2.028,0-3.846-2.378-4.266-4.546c-0.839,0.839-6.155,4.686-8.602,4.686c-4.616,0-8.183-3.498-8.183-8.044
				C199.916,74.741,201.874,72.573,203.413,72.013z M210.407,81.875c2.448,0,6.084-2.169,6.084-2.868v-9.511
				c-1.888,0.559-5.245,1.538-6.504,2.028c-2.518,0.978-4.266,2.797-4.266,5.454C205.721,79.567,207.749,81.875,210.407,81.875z"/>
			<path class="st1" d="M229.274,83.274c0.839,0,4.196-0.35,4.406-1.12c0.35-1.119,0.35-3.076,0.35-5.175V46.067
				c0-0.979,0-2.797-0.35-3.637c-0.419-0.979-2.308-1.259-4.266-1.259c-0.07,0-0.21-1.748,0.07-1.818
				c3.497-0.35,6.993-1.468,9.931-2.797c0.35,0,0.77,0.63,0.77,1.119c0,0-0.77,2.239-0.77,6.085v33.22c0,2.099,0,4.057,0.35,5.175
				c0.21,0.77,3.567,1.12,4.406,1.12c0.28,0.35,0.35,1.679,0,2.028c-2.868-0.141-4.756-0.35-7.483-0.35
				c-2.728,0-4.546,0.209-7.413,0.35C228.924,84.952,228.994,83.623,229.274,83.274z"/>
			<path class="st1" d="M247.679,57.256c3.567-0.489,7.204-1.468,10.001-2.937c0.35,0,0.769,0.769,0.769,1.119
				c-0.07,0.489-0.489,3.916-0.489,4.615v16.925c0,2.099,0,4.057,0.35,5.175c0.21,0.77,3.566,1.12,4.406,1.12
				c0.28,0.35,0.35,1.679,0,2.028c-2.868-0.141-4.755-0.35-7.483-0.35c-2.728,0-4.546,0.209-7.413,0.35
				c-0.35-0.35-0.28-1.679,0-2.028c0.839,0,4.196-0.35,4.406-1.12c0.35-1.119,0.35-3.076,0.35-5.175V63.971
				c0-0.91,0-2.797-0.35-3.637c-0.49-1.188-4.056-1.259-4.546-1.259C247.539,58.935,247.399,57.606,247.679,57.256z M254.743,39.003
				c1.958,0,3.497,1.539,3.497,3.497c0,1.959-1.539,3.497-3.497,3.497c-1.959,0-3.497-1.538-3.497-3.497
				C251.246,40.542,252.784,39.003,254.743,39.003z"/>
			<path class="st1" d="M299.74,54.389c9.232,0,14.967,6.504,14.967,15.246c0,9.022-6.364,15.945-14.827,15.945
				c-9.232,0-15.036-6.644-15.036-15.385C284.844,61.174,291.278,54.389,299.74,54.389z M300.58,83.274
				c5.945,0,8.113-6.085,8.113-12.029c0-6.784-3.497-14.547-9.721-14.547c-5.945,0-8.113,6.084-8.113,12.099
				C290.859,75.58,294.286,83.274,300.58,83.274z"/>
			<path class="st1" d="M317.32,57.256c3.567-0.489,7.204-1.468,10.001-2.937c0.35,0,0.769,0.769,0.769,1.119
				c-0.07,0.489-0.489,5.664-0.489,6.435c0,0.279,0.21,0.209,0.279,0.139c1.399-3.008,5.106-7.484,8.253-7.484
				c1.819,0,3.637,0.91,4.266,2.028c0.14,0.419,0.28,1.119,0.28,1.889c0,2.587-1.609,3.636-2.308,3.636
				c-0.769,0-1.382-0.441-2.098-0.979c-0.839-0.63-1.679-1.188-3.077-1.188c-3.007,0-5.595,4.685-5.595,6.294v10.77
				c0,2.099,0,4.057,0.35,5.175c0.21,0.77,5.175,1.12,6.014,1.12c0.28,0.35,0.35,1.679,0,2.028c-2.867-0.141-5.944-0.35-8.672-0.35
				s-4.966,0.209-7.833,0.35c-0.35-0.35-0.28-1.679,0-2.028c0.839,0,4.196-0.35,4.406-1.12c0.35-1.119,0.35-3.076,0.35-5.175V63.971
				c0-0.91,0-2.797-0.35-3.637c-0.49-1.188-4.056-1.259-4.546-1.259C317.18,58.935,317.04,57.606,317.32,57.256z"/>
			<path class="st1" d="M343.923,57.256c3.567-0.489,7.204-1.468,10.001-2.937c0.35,0,0.769,0.769,0.769,1.119
				c-0.07,0.489-0.419,3.427-0.419,3.986c0,0.071,0,0.28,0.14,0.28c0.07,0,0.14-0.07,0.21-0.139
				c1.399-1.539,6.084-5.106,9.442-5.106c7.553,0,9.022,4.686,9.022,14.827v7.693c0,2.099,0,4.057,0.35,5.175
				c0.21,0.77,3.567,1.12,4.406,1.12c0.279,0.35,0.35,1.679,0,2.028c-2.868-0.141-4.756-0.35-7.484-0.35
				c-2.727,0-4.546,0.209-7.413,0.35c-0.35-0.35-0.279-1.679,0-2.028c0.839,0,4.197-0.35,4.406-1.12
				c0.35-1.119,0.35-3.076,0.35-5.175v-6.993c0-8.672-1.399-11.469-6.854-11.469c-2.588,0-6.644,3.217-6.644,3.846v14.616
				c0,2.099,0,4.057,0.35,5.175c0.21,0.77,3.566,1.12,4.406,1.12c0.28,0.35,0.35,1.679,0,2.028c-2.867-0.141-4.755-0.35-7.483-0.35
				s-4.546,0.209-7.413,0.35c-0.35-0.35-0.28-1.679,0-2.028c0.839,0,4.196-0.35,4.406-1.12c0.35-1.119,0.35-3.076,0.35-5.175V64.25
				c0-0.908,0-3.076-0.35-3.916c-0.49-1.188-4.056-1.259-4.546-1.259C343.783,58.935,343.643,57.606,343.923,57.256z"/>
			<path class="st1" d="M381.336,57.256c3.567-0.489,7.204-1.468,10.001-2.937c0.35,0,0.769,0.769,0.769,1.119
				c-0.07,0.489-0.489,3.916-0.489,4.615v16.925c0,2.099,0,4.057,0.35,5.175c0.21,0.77,3.566,1.12,4.406,1.12
				c0.28,0.35,0.35,1.679,0,2.028c-2.868-0.141-4.755-0.35-7.483-0.35s-4.546,0.209-7.413,0.35c-0.35-0.35-0.28-1.679,0-2.028
				c0.839,0,4.196-0.35,4.406-1.12c0.35-1.119,0.35-3.076,0.35-5.175V63.971c0-0.91,0-2.797-0.35-3.637
				c-0.49-1.188-4.056-1.259-4.546-1.259C381.196,58.935,381.056,57.606,381.336,57.256z M388.399,39.003
				c1.958,0,3.497,1.539,3.497,3.497c0,1.959-1.539,3.497-3.497,3.497c-1.959,0-3.497-1.538-3.497-3.497
				C384.903,40.542,386.441,39.003,388.399,39.003z"/>
			<path class="st1" d="M402.587,72.013c3.917-1.399,10.211-3.497,12.239-4.406c0.7-0.28,0.839-0.489,0.839-1.748v-1.888
				c0-3.147-2.588-6.715-6.015-6.715c-2.448,0-3.357,1.609-3.846,4.337c-0.419,2.378-1.539,3.357-3.287,3.357
				c-1.469,0-2.378-1.539-2.378-2.938c0-0.28,0.21-1.329,0.49-1.679c2.168-2.028,7.623-5.735,12.729-5.735
				c3.986,0,7.623,4.197,7.623,9.582v14.407c0,1.889,0.559,3.288,2.168,3.288c1.259,0,2.098-0.77,2.308-0.91
				c0.21,0,0.28,0.35,0.28,0.56c0,0.419-0.14,0.978-0.35,1.329c-0.839,0.769-3.777,2.657-5.246,2.657
				c-2.028,0-3.846-2.378-4.266-4.546c-0.839,0.839-6.155,4.686-8.602,4.686c-4.616,0-8.183-3.498-8.183-8.044
				C399.091,74.741,401.049,72.573,402.587,72.013z M409.581,81.875c2.448,0,6.084-2.169,6.084-2.868v-9.511
				c-1.888,0.559-5.245,1.538-6.504,2.028c-2.518,0.978-4.266,2.797-4.266,5.454C404.896,79.567,406.924,81.875,409.581,81.875z"/>
			<path class="st1" d="M467.416,38.444c4.616,0,9.651,0.35,14.827,1.468c0,0,1.608,9.651,1.608,10.351
				c0.07,0.419-0.839,0.908-1.539,0.908c-0.419,0-0.629-0.07-0.839-0.209c-0.419-2.168-2.028-10.211-13.707-10.211
				c-10.351,0-17.065,10.561-17.065,20.352c0,10.911,6.015,22.101,18.183,22.101c4.266,0,7.204-1.539,9.232-3.357
				c2.728-2.448,3.777-5.805,4.266-8.113c0.699-0.07,1.608,0.141,2.238,0.56c0,1.399-1.469,9.232-2.448,10.071
				c-3.847,2.168-8.602,3.147-15.037,3.147c-13.847,0-23.359-10.56-23.359-22.939C443.777,49.494,453.638,38.444,467.416,38.444z"/>
			<path class="st1" d="M504.074,54.389c9.231,0,14.967,6.504,14.967,15.246c0,9.022-6.364,15.945-14.827,15.945
				c-9.232,0-15.036-6.644-15.036-15.385C489.178,61.174,495.612,54.389,504.074,54.389z M504.914,83.274
				c5.945,0,8.113-6.085,8.113-12.029c0-6.784-3.497-14.547-9.722-14.547c-5.945,0-8.113,6.084-8.113,12.099
				C495.193,75.58,498.62,83.274,504.914,83.274z"/>
			<path class="st1" d="M521.193,57.256c3.566-0.489,7.204-1.468,10.001-2.937c0.35,0,0.769,0.769,0.769,1.119
				c-0.07,0.489-0.419,3.077-0.419,3.636c0,0.071,0,0.28,0.139,0.28c0.071,0,0.141-0.07,0.21-0.139
				c1.748-1.468,5.455-4.756,9.232-4.756c4.126,0,6.854,1.609,7.973,5.805c3.077-2.797,6.924-5.805,10.281-5.805
				c7.553,0,9.022,4.686,9.022,14.827v7.693c0,2.099,0,4.057,0.35,5.175c0.21,0.77,3.566,1.12,4.406,1.12
				c0.28,0.35,0.35,1.679,0,2.028c-2.867-0.141-4.756-0.35-7.484-0.35s-4.546,0.209-7.413,0.35c-0.35-0.35-0.28-1.679,0-2.028
				c0.839,0,4.196-0.35,4.405-1.12c0.35-1.119,0.35-3.076,0.35-5.175v-7.482c0-6.924-0.908-10.98-6.574-10.98
				c-3.427,0-6.854,3.497-6.854,3.986c0.21,1.47,0.35,4.233,0.35,5.875v8.602c0,2.099,0,4.057,0.35,5.175
				c0.21,0.77,3.568,1.12,4.406,1.12c0.28,0.35,0.35,1.679,0,2.028c-2.867-0.141-4.756-0.35-7.484-0.35
				c-2.726,0-4.546,0.209-7.413,0.35c-0.35-0.35-0.28-1.679,0-2.028c0.839,0,4.196-0.35,4.406-1.12
				c0.35-1.119,0.35-3.076,0.35-5.175v-7.133c0-8.533-1.539-11.33-6.574-11.33c-3.147,0-6.504,2.937-6.504,3.846v14.616
				c0,2.099,0,4.057,0.35,5.175c0.209,0.77,3.566,1.12,4.406,1.12c0.279,0.35,0.35,1.679,0,2.028
				c-2.868-0.141-4.756-0.35-7.484-0.35s-4.546,0.209-7.414,0.35c-0.35-0.35-0.28-1.679,0-2.028c0.84,0,4.197-0.35,4.406-1.12
				c0.35-1.119,0.35-3.076,0.35-5.175V64.25c0-0.908,0-3.076-0.35-3.916c-0.489-1.188-4.057-1.259-4.546-1.259
				C521.052,58.935,520.913,57.606,521.193,57.256z"/>
			<path class="st1" d="M576.656,57.256c3.566-0.489,7.204-1.468,10.001-2.937c0.35,0,0.769,0.769,0.769,1.119
				c-0.07,0.489-0.419,3.077-0.419,3.636c0,0.071,0,0.28,0.139,0.28c0.071,0,0.141-0.07,0.21-0.139
				c1.748-1.468,5.455-4.756,9.232-4.756c4.126,0,6.854,1.609,7.973,5.805c3.077-2.797,6.924-5.805,10.281-5.805
				c7.553,0,9.022,4.686,9.022,14.827v7.693c0,2.099,0,4.057,0.35,5.175c0.21,0.77,3.566,1.12,4.406,1.12
				c0.28,0.35,0.35,1.679,0,2.028c-2.867-0.141-4.756-0.35-7.484-0.35s-4.546,0.209-7.413,0.35c-0.35-0.35-0.28-1.679,0-2.028
				c0.839,0,4.196-0.35,4.405-1.12c0.35-1.119,0.35-3.076,0.35-5.175v-7.482c0-6.924-0.908-10.98-6.574-10.98
				c-3.427,0-6.854,3.497-6.854,3.986c0.21,1.47,0.35,4.233,0.35,5.875v8.602c0,2.099,0,4.057,0.35,5.175
				c0.21,0.77,3.568,1.12,4.406,1.12c0.28,0.35,0.35,1.679,0,2.028c-2.867-0.141-4.756-0.35-7.484-0.35
				c-2.726,0-4.546,0.209-7.413,0.35c-0.35-0.35-0.28-1.679,0-2.028c0.839,0,4.196-0.35,4.406-1.12
				c0.35-1.119,0.35-3.076,0.35-5.175v-7.133c0-8.533-1.539-11.33-6.574-11.33c-3.147,0-6.504,2.937-6.504,3.846v14.616
				c0,2.099,0,4.057,0.35,5.175c0.209,0.77,3.566,1.12,4.406,1.12c0.279,0.35,0.35,1.679,0,2.028
				c-2.868-0.141-4.756-0.35-7.484-0.35s-4.546,0.209-7.414,0.35c-0.35-0.35-0.28-1.679,0-2.028c0.84,0,4.197-0.35,4.406-1.12
				c0.35-1.119,0.35-3.076,0.35-5.175V64.25c0-0.908,0-3.076-0.35-3.916c-0.489-1.188-4.057-1.259-4.546-1.259
				C576.515,58.935,576.376,57.606,576.656,57.256z"/>
			<path class="st1" d="M627.586,55.718c3.568-0.141,7.064-0.63,9.582-1.399c0.35,0,0.77,1.049,0.77,1.399
				c-0.28,0.559-0.49,2.797-0.49,4.826v10.281c0,7.413,2.098,10.84,6.993,10.84c3.077,0,6.435-2.168,6.435-3.846V62.712
				c0-0.91,0-2.728-0.56-3.777c-0.699-1.259-3.006-1.399-3.916-1.399c-0.21-0.21-0.28-1.468,0-1.818
				c3.566-0.141,7.064-0.63,9.582-1.399c0.35,0,0.769,1.328,0.769,1.679c-0.28,0.559-0.489,2.517-0.489,4.546V75.23
				c0,0.77,0.07,3.357,0.489,5.316c0.35,1.329,3.917,1.188,4.126,1.258c0.141,0.071,0.21,0.56,0.21,0.77
				c0,0.139-0.21,1.119-0.56,1.119c-3.636,0.21-9.022,1.959-9.091,1.959c-0.35,0-0.56-0.63-0.56-1.12v-3.217
				c0-0.35-0.139-0.35-0.139-0.35c-1.959,2.098-6.365,4.615-9.931,4.615c-7.414,0-8.743-8.042-8.743-13.917v-8.952
				c0-0.91,0-2.728-0.559-3.777c-0.699-1.259-3.008-1.399-3.917-1.399C627.378,57.326,627.308,56.068,627.586,55.718z"/>
			<path class="st1" d="M664.42,57.256c3.566-0.489,7.204-1.468,10.001-2.937c0.35,0,0.769,0.769,0.769,1.119
				c-0.07,0.489-0.419,3.427-0.419,3.986c0,0.071,0,0.28,0.139,0.28c0.071,0,0.141-0.07,0.21-0.139
				c1.399-1.539,6.085-5.106,9.441-5.106c7.553,0,9.023,4.686,9.023,14.827v7.693c0,2.099,0,4.057,0.35,5.175
				c0.209,0.77,3.566,1.12,4.405,1.12c0.28,0.35,0.35,1.679,0,2.028c-2.867-0.141-4.755-0.35-7.482-0.35s-4.547,0.209-7.414,0.35
				c-0.35-0.35-0.28-1.679,0-2.028c0.84,0,4.196-0.35,4.406-1.12c0.35-1.119,0.35-3.076,0.35-5.175v-6.993
				c0-8.672-1.399-11.469-6.854-11.469c-2.587,0-6.644,3.217-6.644,3.846v14.616c0,2.099,0,4.057,0.35,5.175
				c0.209,0.77,3.566,1.12,4.406,1.12c0.279,0.35,0.35,1.679,0,2.028c-2.868-0.141-4.756-0.35-7.484-0.35s-4.546,0.209-7.414,0.35
				c-0.35-0.35-0.279-1.679,0-2.028c0.84,0,4.196-0.35,4.406-1.12c0.35-1.119,0.35-3.076,0.35-5.175V64.25
				c0-0.908,0-3.076-0.35-3.916c-0.489-1.188-4.057-1.259-4.546-1.259C664.281,58.935,664.14,57.606,664.42,57.256z"/>
			<path class="st1" d="M701.838,57.256c3.566-0.489,7.204-1.468,10.001-2.937c0.35,0,0.769,0.769,0.769,1.119
				c-0.07,0.489-0.489,3.916-0.489,4.615v16.925c0,2.099,0,4.057,0.35,5.175c0.209,0.77,3.566,1.12,4.406,1.12
				c0.279,0.35,0.35,1.679,0,2.028c-2.868-0.141-4.756-0.35-7.484-0.35s-4.546,0.209-7.414,0.35c-0.35-0.35-0.279-1.679,0-2.028
				c0.84,0,4.196-0.35,4.406-1.12c0.35-1.119,0.35-3.076,0.35-5.175V63.971c0-0.91,0-2.797-0.35-3.637
				c-0.489-1.188-4.057-1.259-4.546-1.259C701.698,58.935,701.558,57.606,701.838,57.256z M708.901,39.003
				c1.959,0,3.498,1.539,3.498,3.497c0,1.959-1.539,3.497-3.498,3.497c-1.957,0-3.497-1.538-3.497-3.497
				C705.404,40.542,706.943,39.003,708.901,39.003z"/>
			<path class="st1" d="M719.676,54.878h2.588v-4.406c1.329-1.538,4.126-4.476,4.266-4.685c0.35-0.35,1.12-0.35,1.12-0.07v9.161
				h9.022c0.35,0,0.35,0.35,0.35,0.769c0,0.63-0.35,1.47-0.979,2.099h-8.392V76.07c0,3.707,1.538,5.734,4.615,5.734
				c2.098,0,4.057-1.258,4.546-1.608c0.141,0.07,0.21,0.28,0.21,0.489c0,0.419-0.21,0.979-0.28,1.049
				c-0.979,1.12-3.777,3.846-7.204,3.846c-3.566,0-7.273-1.538-7.273-7.553V57.747h-4.057c-0.21,0-0.35-0.421-0.35-0.63
				C717.858,56.837,719.607,54.948,719.676,54.878z"/>
			<path class="st1" d="M740.231,55.019c1.329,0.139,4.126,0.35,6.995,0.35c2.657,0,5.805-0.21,6.993-0.35
				c0.139,0.419,0.07,2.028-0.28,2.028c-0.489,0-3.497,0.139-3.497,1.188c0,0.07,0.07,0.139,0.139,0.28l7.414,18.883
				c0,0,3.497-9.302,6.155-15.876c0.35-0.84,0.419-1.75,0.419-2.239c0-1.399-1.679-2.237-4.057-2.237c-0.35,0-0.35-1.679,0-2.028
				c1.049,0.139,3.427,0.35,6.295,0.35c2.657,0,4.476-0.21,5.875-0.35c0.279,0.419,0.139,2.028-0.141,2.028
				c-0.559,0-3.636,0.419-4.476,2.377c-4.126,9.862-6.433,15.317-10.49,25.248c-1.748,4.266-3.008,8.742-5.525,12.449
				c-1.609,2.378-3.777,3.916-6.085,3.916c-1.329,0-3.077-0.489-3.077-3.006c0-0.84,0.49-1.609,0.84-2.028
				c3.286,0,5.175-0.21,7.973-3.987c1.119-1.468,3.147-6.294,3.356-7.063c-3.916-10.001-6.924-17.554-11.05-26.506
				c-0.699-1.47-2.937-1.399-3.777-1.399C740.092,57.047,740.092,55.158,740.231,55.019z"/>
			<path class="st1" d="M813.662,38.444c4.617,0,9.651,0.35,14.827,1.468c0,0,1.609,9.651,1.609,10.351
				c0.07,0.419-0.839,0.908-1.538,0.908c-0.421,0-0.63-0.07-0.84-0.209c-0.419-2.168-2.028-10.211-13.708-10.211
				c-10.351,0-17.064,10.561-17.064,20.352c0,10.911,6.014,22.101,18.184,22.101c4.266,0,7.204-1.539,9.231-3.357
				c2.728-2.448,3.777-5.805,4.267-8.113c0.699-0.07,1.609,0.141,2.237,0.56c0,1.399-1.468,9.232-2.448,10.071
				c-3.846,2.168-8.602,3.147-15.036,3.147c-13.849,0-23.359-10.56-23.359-22.939C790.024,49.494,799.884,38.444,813.662,38.444z"/>
			<path class="st1" d="M850.321,54.389c9.231,0,14.966,6.504,14.966,15.246c0,9.022-6.364,15.945-14.827,15.945
				c-9.232,0-15.037-6.644-15.037-15.385C835.423,61.174,841.858,54.389,850.321,54.389z M851.159,83.274
				c5.944,0,8.113-6.085,8.113-12.029c0-6.784-3.498-14.547-9.722-14.547c-5.944,0-8.112,6.084-8.112,12.099
				C841.438,75.58,844.865,83.274,851.159,83.274z"/>
			<path class="st1" d="M866.796,83.274c0.84,0,4.196-0.35,4.406-1.12c0.35-1.119,0.35-3.076,0.35-5.175V46.067
				c0-0.979,0-2.797-0.35-3.637c-0.419-0.979-2.308-1.259-4.266-1.259c-0.071,0-0.21-1.748,0.07-1.818
				c3.497-0.35,6.993-1.468,9.931-2.797c0.35,0,0.769,0.63,0.769,1.119c0,0-0.769,2.239-0.769,6.085v33.22
				c0,2.099,0,4.057,0.35,5.175c0.209,0.77,3.566,1.12,4.406,1.12c0.279,0.35,0.35,1.679,0,2.028
				c-2.868-0.141-4.756-0.35-7.484-0.35s-4.546,0.209-7.414,0.35C866.446,84.952,866.516,83.623,866.796,83.274z"/>
			<path class="st1" d="M885.332,83.274c0.84,0,4.196-0.35,4.406-1.12c0.35-1.119,0.35-3.076,0.35-5.175V46.067
				c0-0.979,0-2.797-0.35-3.637c-0.419-0.979-2.308-1.259-4.266-1.259c-0.071,0-0.21-1.748,0.07-1.818
				c3.497-0.35,6.993-1.468,9.931-2.797c0.35,0,0.769,0.63,0.769,1.119c0,0-0.769,2.239-0.769,6.085v33.22
				c0,2.099,0,4.057,0.35,5.175c0.209,0.77,3.566,1.12,4.406,1.12c0.279,0.35,0.35,1.679,0,2.028
				c-2.868-0.141-4.756-0.35-7.484-0.35s-4.546,0.209-7.414,0.35C884.983,84.952,885.052,83.623,885.332,83.274z"/>
			<path class="st1" d="M915.901,54.459c8.393,0,10.491,6.715,10.491,9.512c0,2.028-0.35,3.217-1.679,3.286
				c-2.169,0.141-16.785,0.49-17.624,0.49v0.489c0,8.602,5.384,12.939,11.4,12.939c3.846,0,6.783-2.658,7.693-3.707
				c0.07,0,0.56,0.419,0.56,0.979c0,0.35-0.21,0.908-0.421,1.258c-1.258,2.028-4.755,5.946-10.21,5.946
				c-8.253,0-13.988-6.295-13.988-14.548C902.123,61.732,909.746,54.459,915.901,54.459z M918.839,65.159
				c0.839,0,1.608-0.35,1.608-1.609c0-2.027-1.468-6.574-5.734-6.574c-5.875,0-7.414,8.183-7.273,8.183H918.839z"/>
			<path class="st1" d="M936.774,85.161c-2.448-0.769-5.734-3.008-5.734-6.504c1.188-1.399,4.755-3.986,6.014-4.755
				c-3.427-1.889-5.805-5.526-5.805-8.952c0-5.526,5.106-10.561,11.819-10.561c2.588,0,4.397,0.723,6.365,1.538
				c0.348,0.145,1.119,0.421,1.609,0.49l7.482-1.049c0.49,0.139,0.699,0.419,0.699,0.699c0,0.559-0.908,2.448-1.608,2.867
				c-1.748-0.07-4.617-0.28-4.617-0.28c-0.209,0-0.279,0.07-0.279,0.21c0.35,0.35,1.957,3.147,1.957,6.364
				c0,4.897-5.106,10.281-11.819,10.281c-1.19,0-3.217-0.35-3.917-0.63c-1.258,0.699-2.587,1.959-2.587,3.077
				c0,0.699,1.399,2.448,4.196,2.448h8.253c5.525,0,10.841,3.427,10.841,7.344c0,5.734-8.463,13.148-18.184,13.218
				c-5.666,0.07-12.099-2.797-12.099-8.533C929.362,89.357,934.396,86.351,936.774,85.161z M944.258,98.24
				c4.826,0,10.561-3.636,10.561-7.484c0-2.027-2.588-5.384-9.232-5.384c-1.259,0-6.015,0.07-6.504,0.35
				c-1.609,0.908-4.196,2.867-4.196,4.685C934.886,94.953,938.313,98.24,944.258,98.24z M943.348,73.412
				c3.846,0,5.946-4.126,5.946-7.973c0-4.337-2.169-8.952-6.504-8.952c-3.987,0-6.155,4.196-6.155,8.183
				C936.635,68.936,939.082,73.412,943.348,73.412z"/>
			<path class="st1" d="M974.112,54.459c8.393,0,10.491,6.715,10.491,9.512c0,2.028-0.35,3.217-1.679,3.286
				c-2.169,0.141-16.785,0.49-17.624,0.49v0.489c0,8.602,5.384,12.939,11.4,12.939c3.846,0,6.783-2.658,7.693-3.707
				c0.07,0,0.56,0.419,0.56,0.979c0,0.35-0.21,0.908-0.421,1.258c-1.258,2.028-4.755,5.946-10.21,5.946
				c-8.253,0-13.988-6.295-13.988-14.548C960.334,61.732,967.957,54.459,974.112,54.459z M977.05,65.159
				c0.839,0,1.608-0.35,1.608-1.609c0-2.027-1.468-6.574-5.734-6.574c-5.875,0-7.414,8.183-7.273,8.183H977.05z"/>
			<path class="st1" d="M990.482,76.839c0.21,0,0.419,0,0.63,0.139c0.839,2.938,3.846,6.645,7.553,6.645
				c2.867,0,5.035-1.819,5.035-5.036c0-3.263-2.59-4.901-5.664-6.477c-4.826-2.475-8.183-4.587-8.183-9.049
				c0-5.175,4.966-8.533,10.142-8.533c2.728,0,4.055,0.56,7.133,0.91c0.49,2.168,0.77,5.175,0.84,7.693c0,0.28-0.35,0.35-0.699,0.35
				c-0.35,0-0.84-0.07-1.19-0.35c-0.699-2.587-2.867-6.433-5.875-6.433c-3.357,0-4.965,1.888-4.965,4.405
				c0,3.218,2.172,4.401,6.084,6.574c4.406,2.449,8.044,4.686,8.044,8.533c0,5.666-5.106,9.651-10.77,9.651
				c-3.218,0-5.106-0.769-8.183-1.329c-0.56-1.468-1.19-5.454-1.19-7.273C989.503,77.049,990.132,76.839,990.482,76.839z"/>
		</g>
		<path class="st1" d="M266.366,83.277c0.838,0,4.192-0.349,4.401-1.119c0.349-1.117,0.349-3.072,0.349-5.169V57.78h-4.052
			c-0.209,0-0.349-0.42-0.349-0.629c0-0.28,1.747-2.166,1.817-2.236h2.585v-0.419c0-8.532,5.553-15.529,9.85-17.523
			c0.804-0.373,2.012-0.769,3.696-0.583c0.778,0.086,1.227,0.219,1.823,0.851c0.426,0.524,0.699,1.258,0.699,1.956
			c0,2.514-1.899,2.862-2.794,2.794c-0.626-0.047-1.188-0.28-2.026-0.769c-0.756-0.441-1.188-0.628-2.025-0.628
			c-2.166,0-3.912,2.235-3.843,6.566v7.753h8.243c0.349,0,0.349,0.349,0.349,0.768c0,0.629-0.349,1.468-0.978,2.097h-7.615v19.209
			c0,2.097,0,4.052,0.349,5.169c0.21,0.769,3.843,1.119,4.681,1.119c0.279,0.349,0.349,1.677,0,2.026
			c-2.864-0.141-5.03-0.349-7.755-0.349c-2.724,0-4.541,0.209-7.405,0.349C266.017,84.954,266.087,83.627,266.366,83.277z"/>
	</g>
</g>
</svg>
